# AST/ASF file generated using VICON BodyLanguage
# -----------------------------------------------
:version 1.10
:name VICON
:units
  mass 1.0
  length 0.45
  angle deg
:documentation
   .ast/.asf automatically generated from VICON data using
   VICON BodyBuilder and BodyLanguage model FoxedUp or BRILLIANT.MOD
:root
   order TX TY TZ RX RY RZ
   axis XYZ
   position 0 0 0  
   orientation 0 0 0 
:bonedata
  begin
     id 1 
     name lhipjoint
     direction 0.63403 -0.759788 0.143974 
     length 2.51904 
     axis 0 0 0  XYZ
  end
  begin
     id 2 
     name lfemur
     direction 0.34202 -0.939693 0  
     length 7.42313  
     axis 0 0 20  XYZ
    dof rx ry rz
    limits (-160.0 20.0)
           (-70.0 70.0)
           (-60.0 70.0)
  end
  begin
     id 3 
     name ltibia
     direction 0.34202 -0.939693 0   
     length 8.10141   
     axis 0 0 20   XYZ
    dof rx
    limits (-10.0 170.0)
  end
  begin
     id 4 
     name lfoot
     direction 0.0927455 -0.254816 0.962532   
     length 2.14078   
     axis -90 7.62852e-016 20   XYZ
    dof rx rz
    limits (-45.0 90.0)
           (-70.0 20.0)
  end
  begin
     id 5 
     name ltoes
     direction 1.53556e-011 -4.21949e-011 1   
     length 1.07182   
     axis -90 7.62852e-016 20   XYZ
    dof rx
    limits (-90.0 20.0)
  end
  begin
     id 6 
     name rhipjoint
     direction -0.659892 -0.738223 0.139888   
     length 2.59263  
     axis 0 0 0  XYZ 
  end
  begin
     id 7 
     name rfemur
     direction -0.34202 -0.939693 0   
     length 7.58575   
     axis 0 0 -20   XYZ
    dof rx ry rz
    limits (-160.0 20.0)
           (-70.0 70.0)
           (-70.0 60.0)
  end
  begin
     id 8 
     name rtibia
     direction -0.34202 -0.939693 0   
     length 8.19358   
     axis 0 0 -20   XYZ
    dof rx
    limits (-10.0 170.0)
 end
 begin
     id 9 
     name rfoot
     direction -0.0856543 -0.235333 0.968133   
     length 2.13415  
     axis -90 -7.62852e-016 -20   XYZ
    dof rx rz
    limits (-45.0 90.0)
           (-20.0 70.0)
  end
  begin
     id 10 
     name rtoes
     direction -1.53551e-011 -4.21811e-011 1   
     length 1.07055   
     axis -90 -7.62852e-016 -20   XYZ
    dof rx
    limits (-90.0 20.0)
  end
  begin
     id 11 
     name lowerback
     direction 0.025219 0.998394 -0.0507326   
     length 1.91844   
     axis 0 0 0   XYZ
    dof rx ry rz
    limits (-20.0 45.0)
           (-30.0 30.0)
           (-30.0 30.0)
  end
  begin
     id 12 
     name upperback
     direction 0.0213103 0.99967 -0.0143101   
     length 1.92246   
     axis 0 0 0   XYZ
    dof rx ry rz
    limits (-20.0 45.0)
           (-30.0 30.0)
           (-30.0 30.0)
  end
  begin
     id 13 
     name thorax
     direction 0.00920974 0.99991 0.00971518   
     length 1.92239   
     axis 0 0 0   XYZ
    dof rx ry rz
    limits (-20.0 45.0)
           (-30.0 30.0)
           (-30.0 30.0)
  end
  begin
     id 14 
     name lowerneck
     direction 0.0598257 0.997249 0.0437612   
     length 3.13679   
     axis 0 0 0   XYZ
    dof rx ry rz
    limits (-20.0 45.0)
           (-30.0 30.0)
           (-30.0 30.0)
  end
  begin
     id 15 
     name upperneck
     direction -0.035342 0.999338 0.00863891   
     length 3.16283   
     axis 0 0 0   XYZ
    dof rx ry rz
    limits (-20.0 45.0)
           (-30.0 30.0)
           (-30.0 30.0)
  end
  begin
     id 16
     name head
     direction 0.37144 0.811566 0.450991  
     length 1.2838  
     axis 0 0 0   XYZ
    dof rx ry rz
    limits (-20.0 45.0)
           (-30.0 30.0)
           (-30.0 30.0)
  end
  begin
     id 17 
     name lclavicle
     direction 0.961094 0.274654 -0.0293862  
     length 3.63466  
     axis 0 0 0   XYZ
    dof ry rz
    limits (-20.0 10.0)
           (0.0 20.0)
  end
  begin
     id 18 
     name lhumerus
     direction 1 -4.48963e-011 1.10303e-027   
     length 5.12842   
     axis 180 -30 -90   XYZ
    dof rx ry rz
    limits (-60.0 90.0)
           (-90.0 90.0)
           (-90.0 90.0)
  end
  begin
     id 19
     name lradius
     direction 1 -4.48968e-011 4.13199e-027   
     length 3.47396   
     axis 180 -30 -90   XYZ
    dof rx
    limits (-10.0 170.0)
  end
  begin
     id 20
     name lwrist
     direction 1 -4.48948e-011 9.12708e-027   
     length 1.73698   
     axis -6.84618e-015 90 90   XYZ
    dof ry
    limits (-180.0 0.0)
 end
  begin
     id 21 
     name lhand
     direction 1 -4.49057e-011 1.82749e-026   
     length 0.728607   
     axis -1.16502e-014 90 90   XYZ
    dof rx rz
    limits (-90.0 90.0)
           (-45.0 45.0)
  end
  begin
     id 22 
     name lfingers
     direction 1 -4.48912e-011 3.64949e-026   
     length 0.587422   
     axis -2.33008e-014 90 90   XYZ
    dof rx
    limits (0.0 90.0)
  end
  begin
     id 23
     name lthumb
     direction 0.707107 -6.34995e-011 0.707107   
     length 0.843424   
     axis -90 45 5.69224e-014   XYZ
    dof rx rz
    limits (-45.0 45.0)
           (-45.0 45.0)
  end
  begin
     id 24 
     name rclavicle
     direction -0.90514 0.421881 -0.0523369   
     length 3.57139  
     axis 0 0 0   XYZ 
    dof ry rz
    limits (-10.0 20.0)
           (-20.0 0.0)
  end
  begin
     id 25 
     name rhumerus
     direction -1 -4.48954e-011 -1.76662e-027  
     length 5.48477   
     axis 180 30 90   XYZ
    dof rx ry rz
    limits (-90.0 60.0)
           (-90.0 90.0)
           (-90.0 90.0)
  end
  begin
     id 26 
     name rradius
     direction -1 -4.48982e-011 1.26841e-027   
     length 3.47856   
     axis 180 30 90   XYZ
    dof rx
    limits (-10.0 170.0)
  end
  begin
     id 27 
     name rwrist
     direction -1 -4.49037e-011 9.13554e-027   
     length 1.73928   
     axis -6.84618e-015 -90 -90   XYZ
    dof ry
    limits (-180.0 0.0)
  end
  begin
     id 28
     name rhand
     direction -1 -4.48871e-011 1.82397e-026   
     length 0.709974   
     axis -1.16502e-014 -90 -90   XYZ
    dof rx rz
    limits (-90.0 90.0)
           (-45.0 45.0)
  end
  begin
     id 29
     name rfingers
     direction -1 -4.48994e-011 3.65258e-026   
     length 0.572399   
     axis -2.33008e-014 -90 -90   XYZ
    dof rx
    limits (0.0 90.0)
  end
  begin
     id 30
     name rthumb
     direction -0.707107 -6.34861e-011 0.707107   
     length 0.821855   
     axis -90 -45 -5.69224e-014   XYZ
    dof rx rz
    limits (-45.0 45.0)
           (-45.0 45.0)
  end
:hierarchy
  begin
    root lhipjoint rhipjoint lowerback
    lhipjoint lfemur
    lfemur ltibia
    ltibia lfoot
    lfoot ltoes
    rhipjoint rfemur
    rfemur rtibia
    rtibia rfoot
    rfoot rtoes
    lowerback upperback
    upperback thorax
    thorax lowerneck lclavicle rclavicle
    lowerneck upperneck
    upperneck head
    lclavicle lhumerus
    lhumerus lradius
    lradius lwrist
    lwrist lhand lthumb
    lhand lfingers
    rclavicle rhumerus
    rhumerus rradius
    rradius rwrist
    rwrist rhand rthumb
    rhand rfingers
  end

#!OML:ASF F:\VICON\USERDATA\INSTALL\Justin1\Justin1.ASF
:FULLY-SPECIFIED
:DEGREES
99
root 0.365401 18.2346 -3.98014 3.79957 3.51371 -3.76148
lowerback 2.70464 -1.18794 3.86311
upperback -0.701359 -1.37353 3.3074
thorax -2.24949 -0.71408 1.30007
lowerneck -16.4737 -3.51926 -4.48885
upperneck 16.3745 -3.17427 -2.65842
head 7.81503 -2.05803 -0.512891
rclavicle 5.91384e-015 -1.74931e-014
rhumerus -30.1736 -5.40588 -75.8864
rradius 31.7412
rwrist 0.193392
rhand -18.7911 18.5172
rfingers 7.12502
rthumb 7.50684 -11.3296
lclavicle 5.91384e-015 -1.74931e-014
lhumerus -37.0032 21.0356 73.5468
lradius 31.186
lwrist -16.7929
lhand -5.0097 27.5678
lfingers 7.12502
lthumb 20.7841 56.4746
rfemur -15.5979 8.13475 26.8172
rtibia 32.38
rfoot -17.6931 -13.0432
rtoes 26.6859
lfemur -13.3237 -8.18043 -18.3303
ltibia 29.463
lfoot -16.1163 12.9958
ltoes 3.14258
100
root 0.367063 18.2321 -3.97979 3.72433 3.40462 -3.76084
lowerback 2.80038 -1.17745 3.81848
upperback -0.703852 -1.35477 3.31849
thorax -2.30444 -0.704621 1.33789
lowerneck -16.4146 -3.48157 -4.54215
upperneck 16.4506 -3.11612 -2.63314
head 7.83119 -2.03244 -0.489132
rclavicle -6.85807e-015 2.3059e-014
rhumerus -30.1992 -5.25822 -75.932
rradius 31.8935
rwrist 0.0981384
rhand -18.6893 18.459
rfingers 7.12502
rthumb 7.60509 -11.3843
lclavicle -6.85807e-015 2.3059e-014
lhumerus -37.0399 21.0843 73.5067
lradius 31.022
lwrist -16.9085
lhand -5.23016 27.3781
lfingers 7.12502
lthumb 20.5723 56.3081
rfemur -15.5284 8.17066 26.8158
rtibia 32.3952
rfoot -17.6851 -12.9877
rtoes 26.6466
lfemur -13.2256 -8.21473 -18.3609
ltibia 29.4632
lfoot -16.0573 13.1863
ltoes 2.73144
101
root 0.369705 18.2307 -3.9775 3.71045 3.34989 -3.69678
lowerback 2.82156 -1.18251 3.71673
upperback -0.70086 -1.36426 3.31576
thorax -2.31086 -0.708068 1.39273
lowerneck -16.4213 -3.44483 -4.56096
upperneck 16.5428 -3.05615 -2.64405
head 7.86291 -2.00804 -0.484135
rclavicle -1.16289e-014 2.94201e-014
rhumerus -30.1541 -5.08786 -75.9929
rradius 32.0148
rwrist 0.00989085
rhand -18.6146 18.1196
rfingers 7.12502
rthumb 7.6771 -11.7211
lclavicle -1.16289e-014 2.94201e-014
lhumerus -37.0824 21.0439 73.5339
lradius 30.995
lwrist -16.9788
lhand -5.44435 27.2602
lfingers 7.12502
lthumb 20.3664 56.2123
rfemur -15.4875 8.17375 26.7407
rtibia 32.3758
rfoot -17.6706 -12.9845
rtoes 26.3466
lfemur -13.188 -8.2588 -18.4507
ltibia 29.4747
lfoot -16.0761 13.2771
ltoes 2.76879
102
root 0.374154 18.2288 -3.97278 3.7559 3.24183 -3.67737
lowerback 2.75237 -1.17674 3.69078
upperback -0.699574 -1.36205 3.31217
thorax -2.27004 -0.706311 1.40166
lowerneck -16.4222 -3.41365 -4.53222
upperneck 16.6263 -3.0114 -2.67985
head 7.88955 -1.99018 -0.496554
rclavicle 1.07841e-014 3.4191e-014
rhumerus -30.069 -4.8937 -76.0754
rradius 32.0651
rwrist -0.0293996
rhand -18.546 17.9979
rfingers 7.12502
rthumb 7.74337 -11.8403
lclavicle 1.07841e-014 3.4191e-014
lhumerus -37.0813 21.0157 73.5317
lradius 30.9337
lwrist -16.9533
lhand -5.57817 27.1735
lfingers 7.12502
lthumb 20.2378 56.1393
rfemur -15.5136 8.16951 26.6937
rtibia 32.3243
rfoot -17.7059 -12.9808
rtoes 25.9674
lfemur -13.193 -8.30412 -18.5007
ltibia 29.4824
lfoot -16.1451 13.3883
ltoes 3.0337
103
root 0.37717 18.2268 -3.96767 3.77487 3.13377 -3.75813
lowerback 2.70814 -1.15813 3.78016
upperback -0.722324 -1.33536 3.32551
thorax -2.27039 -0.694263 1.36363
lowerneck -16.3281 -3.41729 -4.57451
upperneck 16.7111 -3.0168 -2.64397
head 7.9028 -1.99308 -0.477875
rclavicle -4.12478e-015 -4.05521e-014
rhumerus -30.0603 -4.83182 -76.1057
rradius 32.0935
rwrist 0.0466867
rhand -18.4989 17.9509
rfingers 7.12502
rthumb 7.78879 -11.8856
lclavicle -4.12478e-015 -4.05521e-014
lhumerus -37.0983 20.9285 73.5114
lradius 30.8717
lwrist -16.8499
lhand -5.44625 27.3469
lfingers 7.12502
lthumb 20.3646 56.2991
rfemur -15.5474 8.16108 26.7687
rtibia 32.2515
rfoot -17.7583 -13.0327
rtoes 25.2942
lfemur -13.1976 -8.23875 -18.4282
ltibia 29.5035
lfoot -16.1845 13.4266
ltoes 3.17855
104
root 0.379595 18.2269 -3.96319 3.73054 3.08063 -3.80324
lowerback 2.70594 -1.14019 3.82743
upperback -0.716778 -1.31021 3.32302
thorax -2.26451 -0.682277 1.33336
lowerneck -16.1965 -3.4381 -4.54873
upperneck 16.7112 -3.05247 -2.68373
head 7.87899 -2.01176 -0.496859
rclavicle -1.34677e-014 2.54444e-014
rhumerus -30.0406 -4.83359 -76.124
rradius 32.0844
rwrist 0.0659154
rhand -18.5139 18.0152
rfingers 7.12502
rthumb 7.7743 -11.8219
lclavicle -1.34677e-014 2.54444e-014
lhumerus -37.1257 20.9351 73.4793
lradius 30.8681
lwrist -16.941
lhand -5.34491 27.432
lfingers 7.12502
lthumb 20.462 56.3738
rfemur -15.4667 8.19973 26.8109
rtibia 32.1761
rfoot -17.8368 -13.0231
rtoes 25.4452
lfemur -13.1382 -8.19147 -18.3995
ltibia 29.5269
lfoot -16.2079 13.4129
ltoes 3.57644
105
root 0.383451 18.2282 -3.95978 3.72879 3.05262 -3.81364
lowerback 2.61991 -1.15689 3.83924
upperback -0.656309 -1.34066 3.32008
thorax -2.15429 -0.696198 1.32201
lowerneck -16.1694 -3.42736 -4.48026
upperneck 16.6463 -3.04421 -2.7552
head 7.85011 -2.00922 -0.529162
rclavicle 5.91384e-015 -1.98785e-014
rhumerus -29.8352 -4.82367 -76.1914
rradius 32.021
rwrist 0.0988025
rhand -18.5746 18.113
rfingers 7.12502
rthumb 7.71575 -11.7263
lclavicle 5.91384e-015 -1.98785e-014
lhumerus -37.1146 21.0154 73.4701
lradius 31.0101
lwrist -17.0367
lhand -5.27225 27.4614
lfingers 7.12502
lthumb 20.5318 56.3957
rfemur -15.4138 8.20152 26.8155
rtibia 32.1345
rfoot -17.881 -13.0027
rtoes 25.437
lfemur -13.1251 -8.13711 -18.4064
ltibia 29.5418
lfoot -16.1879 13.3782
ltoes 3.57276
106
root 0.387083 18.2285 -3.95677 3.72659 3.02653 -3.77906
lowerback 2.5063 -1.1879 3.77453
upperback -0.579791 -1.39528 3.32019
thorax -2.01024 -0.720837 1.35648
lowerneck -16.2163 -3.39992 -4.47515
upperneck 16.6782 -3.01053 -2.72239
head 7.86902 -1.99047 -0.516546
rclavicle 8.64713e-015 1.43125e-014
rhumerus -29.5734 -4.81852 -76.2565
rradius 31.9273
rwrist 0.154582
rhand -18.6464 18.2717
rfingers 7.12502
rthumb 7.64646 -11.5701
lclavicle 8.64713e-015 1.43125e-014
lhumerus -37.0218 21.0546 73.5053
lradius 31.0783
lwrist -16.8836
lhand -5.2829 27.4632
lfingers 7.12502
lthumb 20.5216 56.3986
rfemur -15.3864 8.14325 26.7655
rtibia 32.1206
rfoot -17.9811 -12.8936
rtoes 25.7132
lfemur -13.0949 -8.1305 -18.4684
ltibia 29.547
lfoot -16.2288 13.4184
ltoes 3.34458
107
root 0.389456 18.2281 -3.95402 3.73915 2.93786 -3.76397
lowerback 2.40913 -1.20361 3.70978
upperback -0.545011 -1.42612 3.32681
thorax -1.91812 -0.734436 1.39769
lowerneck -16.1533 -3.36664 -4.44309
upperneck 16.675 -2.97396 -2.73841
head 7.85575 -1.97233 -0.52154
rclavicle -1.50579e-014 1.74931e-014
rhumerus -29.4449 -4.71802 -76.3184
rradius 31.8887
rwrist 0.128552
rhand -18.6665 18.2646
rfingers 7.12502
rthumb 7.62706 -11.5778
lclavicle -1.50579e-014 1.74931e-014
lhumerus -36.9438 21.1635 73.4685
lradius 30.9619
lwrist -16.7832
lhand -5.28415 27.411
lfingers 7.12502
lthumb 20.5204 56.3466
rfemur -15.3935 8.1406 26.7355
rtibia 32.1029
rfoot -17.9857 -12.8107
rtoes 25.6305
lfemur -13.101 -8.09896 -18.5028
ltibia 29.5738
lfoot -16.2493 13.5092
ltoes 3.0008
108
root 0.391064 18.2277 -3.95039 3.72726 2.80958 -3.86866
lowerback 2.35234 -1.18516 3.77003
upperback -0.524322 -1.40361 3.36419
thorax -1.86543 -0.723061 1.39989
lowerneck -16.1668 -3.35905 -4.43317
upperneck 16.8067 -2.95522 -2.77126
head 7.90133 -1.9687 -0.533912
rclavicle -1.41137e-014 -1.43125e-014
rhumerus -29.4619 -4.61067 -76.3527
rradius 31.9601
rwrist 0.0479092
rhand -18.7029 18.4554
rfingers 7.12502
rthumb 7.59189 -11.3884
lclavicle -1.41137e-014 -1.43125e-014
lhumerus -36.914 21.1616 73.4776
lradius 30.9136
lwrist -16.7383
lhand -5.20462 27.3962
lfingers 7.12502
lthumb 20.5968 56.3235
rfemur -15.3657 8.25833 26.8441
rtibia 32.087
rfoot -17.9536 -12.8017
rtoes 25.6874
lfemur -13.0811 -8.04472 -18.3989
ltibia 29.6071
lfoot -16.2672 13.5436
ltoes 3.59269
